<svg xmlns="http://www.w3.org/2000/svg" viewBox="0 0 128 128" role="img" aria-labelledby="title">
  <title>WhatsApp</title>
  <path fill="#00A8FF" d="M64.07 10.67c-29.3 0-53.15 23.73-53.15 52.9 0 9.31 2.47 18.43 7.16 26.45l-7.6 27.31 28.13-7.33a53.25 53.25 0 0 0 25.46 6.46c29.31 0 53.16-23.73 53.16-52.9 0-29.16-23.85-52.89-53.16-52.89Zm0 96.71a44.05 44.05 0 0 1-22.42-6.13l-1.6-.95-16.7 4.35 4.5-16.16-1.04-1.66a43.55 43.55 0 0 1-6.8-23.26c0-24.14 19.76-43.82 44.06-43.82s44.06 19.68 44.06 43.82c0 24.15-19.77 43.81-44.06 43.81Z"/>
  <path fill="#00A8FF" d="M88.26 74.82c-1.32-.66-7.78-3.82-8.98-4.25-1.2-.44-2.08-.66-2.96.66-.88 1.31-3.4 4.25-4.17 5.13-.77.87-1.54.98-2.86.33-1.32-.66-5.57-2.04-10.62-6.49-3.93-3.47-6.58-7.75-7.35-9.06-.77-1.31-.08-2.02.58-2.68.59-.58 1.32-1.53 1.98-2.3.66-.76.88-1.31 1.32-2.18.44-.88.22-1.64-.11-2.3-.33-.65-2.96-7.1-4.06-9.72-1.07-2.55-2.16-2.2-2.96-2.24l-2.53-.04c-.88 0-2.31.33-3.51 1.64-1.2 1.31-4.61 4.47-4.61 10.91 0 6.44 4.72 12.66 5.38 13.53.66.88 9.29 14.1 22.5 19.78 3.14 1.35 5.59 2.16 7.5 2.76 3.15 1 6.01.86 8.27.52 2.52-.38 7.78-3.16 8.88-6.22 1.1-3.05 1.1-5.67.77-6.22-.33-.54-1.2-.87-2.52-1.53Z"/>
</svg>
